<svg width="32" height="32" viewBox="0 0 32 32" fill="none" xmlns="http://www.w3.org/2000/svg">
<path d="M26 24.5C26.2755 24.5 26.5 24.724 26.5 25H27.5C27.5 24.349 27.0805 23.799 26.5 23.592V22.5H25.5V23.592C24.9195 23.799 24.5 24.349 24.5 25C24.5 25.827 25.173 26.5 26 26.5C26.2755 26.5 26.5 26.724 26.5 27C26.5 27.276 26.2755 27.5 26 27.5C25.7245 27.5 25.5 27.276 25.5 27H24.5C24.5 27.651 24.9195 28.201 25.5 28.408V29.5H26.5V28.408C27.0805 28.201 27.5 27.651 27.5 27C27.5 26.173 26.827 25.5 26 25.5C25.7245 25.5 25.5 25.276 25.5 25C25.5 24.724 25.7245 24.5 26 24.5Z" fill="#164E35"/>
<path d="M26 20.5C24.272 20.5 22.7295 21.3025 21.7205 22.553L18.5 21.624V20.67C19.051 20.2385 19.4815 19.663 19.737 19H20C21.103 19 22 18.103 22 17V13.5C22 10.1915 19.3085 7.5 16 7.5C12.6915 7.5 10 10.1915 10 13.5V17C10 18.103 10.897 19 12 19H12.2955C12.5545 19.635 12.972 20.1885 13.5 20.613V21.624L9.53 22.769C8.0405 23.199 7 24.5815 7 26.132V28.5H21.107C22.0195 30.278 23.8675 31.5 26 31.5C29.0325 31.5 31.5 29.0325 31.5 26C31.5 22.9675 29.0325 20.5 26 20.5ZM19.288 22.892L18.299 25.1995L16.748 23.959L18.1445 22.5625L19.288 22.892ZM16 23.293L14.5 21.793V21.2015C14.9685 21.3925 15.48 21.5 16.017 21.5H16.105C16.597 21.5 17.066 21.4045 17.5 21.2375V21.793L16 23.293ZM20 18H19.98C19.993 17.87 20 17.738 20 17.6045V16C20.5515 16 21 16.4485 21 17C21 17.5515 20.5515 18 20 18ZM12 18C11.4485 18 11 17.5515 11 17C11 16.4485 11.4485 16 12 16H12.0065C12.0055 16.0275 12 16.0535 12 16.081V17.5C12 17.6695 12.014 17.836 12.035 18H12ZM12.234 15H12C11.634 15 11.2955 15.106 11 15.278V13.5C11 10.743 13.243 8.5 16 8.5C18.757 8.5 21 10.743 21 13.5V15.278C20.7045 15.106 20.366 15 20 15H19.5H18.5C16.9955 15 15.504 14.5025 14.3 13.6L14.0905 13.443L13.842 13.526C13.103 13.772 12.533 14.3185 12.234 15ZM13 17.5V16.081C13 15.4335 13.366 14.852 13.9325 14.568C15.2655 15.493 16.876 16 18.5 16H19V17.6045C19 19.201 17.7015 20.5 16.105 20.5H16.017C14.3535 20.5 13 19.1545 13 17.5ZM13.855 22.562L15.2515 23.9585L13.7005 25.199L12.7115 22.8915L13.855 22.562ZM20.5 26C20.5 26.5205 20.5775 27.0225 20.713 27.5H11V25.5H10V27.5H8V26.132C8 25.025 8.743 24.0375 9.807 23.73L11.7435 23.171L13.299 26.8005L16 24.6405L18.7005 26.801L20.256 23.1715L21.1425 23.427C20.7335 24.1955 20.5 25.0705 20.5 26ZM26 30.5C23.519 30.5 21.5 28.4815 21.5 26C21.5 23.5185 23.519 21.5 26 21.5C28.481 21.5 30.5 23.5185 30.5 26C30.5 28.4815 28.481 30.5 26 30.5Z" fill="#164E35"/>
<path d="M30 4.5H24C23.173 4.5 22.5 5.173 22.5 6V10C22.5 10.827 23.173 11.5 24 11.5H24.5V13.9345L28.1515 11.5H30C30.827 11.5 31.5 10.827 31.5 10V6C31.5 5.173 30.827 4.5 30 4.5ZM30.5 10C30.5 10.2755 30.2755 10.5 30 10.5H27.8485L25.5 12.0655V10.5H24C23.7245 10.5 23.5 10.2755 23.5 10V6C23.5 5.7245 23.7245 5.5 24 5.5H30C30.2755 5.5 30.5 5.7245 30.5 6V10Z" fill="#164E35"/>
<path d="M27 7.29298L25.8535 6.14648L25.1465 6.85348L26.5 8.20698V9.49998H27.5V8.20698L28.8535 6.85348L28.1465 6.14648L27 7.29298Z" fill="#164E35"/>
<path d="M7.5 11.5H8C8.827 11.5 9.5 10.827 9.5 10V6C9.5 5.173 8.827 4.5 8 4.5H2C1.173 4.5 0.5 5.173 0.5 6V10C0.5 10.827 1.173 11.5 2 11.5H3.8485L7.5 13.9345V11.5ZM6.5 12.0655L4.1515 10.5H2C1.7245 10.5 1.5 10.2755 1.5 10V6C1.5 5.7245 1.7245 5.5 2 5.5H8C8.2755 5.5 8.5 5.7245 8.5 6V10C8.5 10.2755 8.2755 10.5 8 10.5H6.5V12.0655Z" fill="#164E35"/>
<path d="M5.5 7.882L4.809 6.5H3.5V9.5H4.5V8.118L5.191 9.5H6.5V6.5H5.5V7.882Z" fill="#164E35"/>
<path d="M15.5 2C15.5 1.7245 15.7245 1.5 16 1.5C16.2755 1.5 16.5 1.7245 16.5 2V2.0855C16.5 2.219 16.448 2.345 16.3535 2.4395L15.5 3.293V4.5H16.5V3.707L17.0605 3.1465C17.344 2.8635 17.5 2.4865 17.5 2.0855V2C17.5 1.173 16.827 0.5 16 0.5C15.173 0.5 14.5 1.173 14.5 2V2.5H15.5V2Z" fill="#164E35"/>
<path d="M16.5 5.5H15.5V6.5H16.5V5.5Z" fill="#164E35"/>
</svg>
